<mxfile host="app.diagrams.net" modified="2022-04-19T11:20:47.508Z" agent="5.0 (Windows NT 10.0; Win64; x64) AppleWebKit/537.36 (KHTML, like Gecko) Chrome/100.0.4896.88 Safari/537.36" etag="a-CMg2aYB5G2VJRfQcA2" version="17.4.5" type="github" pages="2">
  <diagram id="GkWmuAWygiWvj4sKo31e" name="ex.1">
    <mxGraphModel dx="1422" dy="705" grid="1" gridSize="10" guides="1" tooltips="1" connect="1" arrows="1" fold="1" page="1" pageScale="1" pageWidth="827" pageHeight="1169" math="0" shadow="0">
      <root>
        <mxCell id="0" />
        <mxCell id="1" parent="0" />
        <mxCell id="LL6q_I3QLtWtws4i6wOQ-21" style="edgeStyle=orthogonalEdgeStyle;rounded=0;orthogonalLoop=1;jettySize=auto;html=1;exitX=0.75;exitY=1;exitDx=0;exitDy=0;entryX=0.669;entryY=-0.02;entryDx=0;entryDy=0;entryPerimeter=0;" edge="1" parent="1" source="LL6q_I3QLtWtws4i6wOQ-1" target="LL6q_I3QLtWtws4i6wOQ-7">
          <mxGeometry relative="1" as="geometry" />
        </mxCell>
        <mxCell id="LL6q_I3QLtWtws4i6wOQ-1" value="Начало" style="rounded=1;whiteSpace=wrap;html=1;" vertex="1" parent="1">
          <mxGeometry x="370" y="20" width="120" height="60" as="geometry" />
        </mxCell>
        <mxCell id="LL6q_I3QLtWtws4i6wOQ-2" value="Конец" style="rounded=1;whiteSpace=wrap;html=1;" vertex="1" parent="1">
          <mxGeometry x="370" y="650" width="120" height="60" as="geometry" />
        </mxCell>
        <mxCell id="LL6q_I3QLtWtws4i6wOQ-9" style="edgeStyle=orthogonalEdgeStyle;rounded=0;orthogonalLoop=1;jettySize=auto;html=1;exitX=0.25;exitY=1;exitDx=0;exitDy=0;entryX=0.367;entryY=-0.017;entryDx=0;entryDy=0;entryPerimeter=0;" edge="1" parent="1" source="LL6q_I3QLtWtws4i6wOQ-3" target="LL6q_I3QLtWtws4i6wOQ-4">
          <mxGeometry relative="1" as="geometry" />
        </mxCell>
        <mxCell id="LL6q_I3QLtWtws4i6wOQ-3" value="ввод&lt;br&gt;a" style="shape=parallelogram;perimeter=parallelogramPerimeter;whiteSpace=wrap;html=1;fixedSize=1;" vertex="1" parent="1">
          <mxGeometry x="370" y="210" width="120" height="60" as="geometry" />
        </mxCell>
        <mxCell id="LL6q_I3QLtWtws4i6wOQ-20" style="edgeStyle=orthogonalEdgeStyle;rounded=0;orthogonalLoop=1;jettySize=auto;html=1;exitX=0.5;exitY=1;exitDx=0;exitDy=0;entryX=0.596;entryY=0.013;entryDx=0;entryDy=0;entryPerimeter=0;" edge="1" parent="1" source="LL6q_I3QLtWtws4i6wOQ-4" target="LL6q_I3QLtWtws4i6wOQ-11">
          <mxGeometry relative="1" as="geometry" />
        </mxCell>
        <mxCell id="LL6q_I3QLtWtws4i6wOQ-4" value="b=a%10, c=((a-b)/10)%10&lt;br&gt;d=a//100&amp;nbsp;" style="rounded=0;whiteSpace=wrap;html=1;" vertex="1" parent="1">
          <mxGeometry x="330" y="330" width="200" height="80" as="geometry" />
        </mxCell>
        <mxCell id="LL6q_I3QLtWtws4i6wOQ-8" style="edgeStyle=orthogonalEdgeStyle;rounded=0;orthogonalLoop=1;jettySize=auto;html=1;exitX=0.5;exitY=1;exitDx=0;exitDy=0;" edge="1" parent="1" source="LL6q_I3QLtWtws4i6wOQ-7" target="LL6q_I3QLtWtws4i6wOQ-3">
          <mxGeometry relative="1" as="geometry" />
        </mxCell>
        <mxCell id="LL6q_I3QLtWtws4i6wOQ-7" value="вывод&lt;br&gt;&quot;Введите целое трехзначное число&quot;" style="shape=parallelogram;perimeter=parallelogramPerimeter;whiteSpace=wrap;html=1;fixedSize=1;" vertex="1" parent="1">
          <mxGeometry x="350" y="120" width="160" height="50" as="geometry" />
        </mxCell>
        <mxCell id="LL6q_I3QLtWtws4i6wOQ-22" style="edgeStyle=orthogonalEdgeStyle;rounded=0;orthogonalLoop=1;jettySize=auto;html=1;exitX=0.5;exitY=1;exitDx=0;exitDy=0;entryX=0.5;entryY=0;entryDx=0;entryDy=0;" edge="1" parent="1" source="LL6q_I3QLtWtws4i6wOQ-11" target="LL6q_I3QLtWtws4i6wOQ-2">
          <mxGeometry relative="1" as="geometry" />
        </mxCell>
        <mxCell id="LL6q_I3QLtWtws4i6wOQ-11" value="вывод&lt;br&gt;&quot;Сумма цифр равна a+b+c,&lt;br&gt;произведение чисел равно a*b*c&quot;" style="shape=parallelogram;perimeter=parallelogramPerimeter;whiteSpace=wrap;html=1;fixedSize=1;" vertex="1" parent="1">
          <mxGeometry x="305" y="505" width="250" height="80" as="geometry" />
        </mxCell>
        <mxCell id="LL6q_I3QLtWtws4i6wOQ-14" value="" style="strokeWidth=2;html=1;shape=mxgraph.flowchart.annotation_2;align=left;labelPosition=right;pointerEvents=1;" vertex="1" parent="1">
          <mxGeometry x="580" y="320" width="50" height="100" as="geometry" />
        </mxCell>
        <mxCell id="LL6q_I3QLtWtws4i6wOQ-18" value="" style="endArrow=none;dashed=1;html=1;rounded=0;entryX=0;entryY=0.5;entryDx=0;entryDy=0;entryPerimeter=0;exitX=1;exitY=0.5;exitDx=0;exitDy=0;" edge="1" parent="1" source="LL6q_I3QLtWtws4i6wOQ-4" target="LL6q_I3QLtWtws4i6wOQ-14">
          <mxGeometry width="50" height="50" relative="1" as="geometry">
            <mxPoint x="630" y="540" as="sourcePoint" />
            <mxPoint x="680" y="490" as="targetPoint" />
          </mxGeometry>
        </mxCell>
        <mxCell id="LL6q_I3QLtWtws4i6wOQ-19" value="в переменную &#39;b&#39; попадает &lt;br&gt;третье число,&lt;br&gt;в переменную &#39;c&#39; - второе, &lt;br&gt;а первое записывается в &#39;d&#39;" style="text;html=1;align=center;verticalAlign=middle;resizable=0;points=[];autosize=1;strokeColor=none;fillColor=none;" vertex="1" parent="1">
          <mxGeometry x="610" y="340" width="170" height="60" as="geometry" />
        </mxCell>
      </root>
    </mxGraphModel>
  </diagram>
  <diagram id="jCtmnIWadvYQdGwdT1Zc" name="ex.2">
    <mxGraphModel dx="1422" dy="705" grid="1" gridSize="10" guides="1" tooltips="1" connect="1" arrows="1" fold="1" page="1" pageScale="1" pageWidth="827" pageHeight="1169" math="0" shadow="0">
      <root>
        <mxCell id="0" />
        <mxCell id="1" parent="0" />
        <mxCell id="eGvGXIPfCndCh9LHRhV2-4" style="edgeStyle=orthogonalEdgeStyle;rounded=0;orthogonalLoop=1;jettySize=auto;html=1;exitX=0.5;exitY=1;exitDx=0;exitDy=0;entryX=0.542;entryY=-0.027;entryDx=0;entryDy=0;entryPerimeter=0;" edge="1" parent="1" source="eGvGXIPfCndCh9LHRhV2-1" target="eGvGXIPfCndCh9LHRhV2-3">
          <mxGeometry relative="1" as="geometry" />
        </mxCell>
        <mxCell id="eGvGXIPfCndCh9LHRhV2-1" value="Начало" style="rounded=1;whiteSpace=wrap;html=1;" vertex="1" parent="1">
          <mxGeometry x="365" y="20" width="120" height="60" as="geometry" />
        </mxCell>
        <mxCell id="eGvGXIPfCndCh9LHRhV2-2" value="Конец" style="rounded=1;whiteSpace=wrap;html=1;" vertex="1" parent="1">
          <mxGeometry x="365" y="820" width="120" height="60" as="geometry" />
        </mxCell>
        <mxCell id="eGvGXIPfCndCh9LHRhV2-6" style="edgeStyle=orthogonalEdgeStyle;rounded=0;orthogonalLoop=1;jettySize=auto;html=1;exitX=0.5;exitY=1;exitDx=0;exitDy=0;entryX=0.5;entryY=0;entryDx=0;entryDy=0;" edge="1" parent="1" source="eGvGXIPfCndCh9LHRhV2-3" target="eGvGXIPfCndCh9LHRhV2-5">
          <mxGeometry relative="1" as="geometry" />
        </mxCell>
        <mxCell id="eGvGXIPfCndCh9LHRhV2-3" value="вывод:&lt;br&gt;&quot;Введите поочередно координаты двух точек&quot;" style="shape=parallelogram;perimeter=parallelogramPerimeter;whiteSpace=wrap;html=1;fixedSize=1;" vertex="1" parent="1">
          <mxGeometry x="330" y="120" width="190" height="110" as="geometry" />
        </mxCell>
        <mxCell id="eGvGXIPfCndCh9LHRhV2-8" style="edgeStyle=orthogonalEdgeStyle;rounded=0;orthogonalLoop=1;jettySize=auto;html=1;exitX=0.5;exitY=1;exitDx=0;exitDy=0;entryX=0.5;entryY=0;entryDx=0;entryDy=0;" edge="1" parent="1" source="eGvGXIPfCndCh9LHRhV2-5" target="eGvGXIPfCndCh9LHRhV2-7">
          <mxGeometry relative="1" as="geometry" />
        </mxCell>
        <mxCell id="eGvGXIPfCndCh9LHRhV2-5" value="ввод:&lt;br&gt;x_1, y_1, x_2, y_2" style="shape=parallelogram;perimeter=parallelogramPerimeter;whiteSpace=wrap;html=1;fixedSize=1;" vertex="1" parent="1">
          <mxGeometry x="322" y="290" width="206" height="100" as="geometry" />
        </mxCell>
        <mxCell id="eGvGXIPfCndCh9LHRhV2-10" style="edgeStyle=orthogonalEdgeStyle;rounded=0;orthogonalLoop=1;jettySize=auto;html=1;exitX=0.5;exitY=1;exitDx=0;exitDy=0;entryX=0.5;entryY=0;entryDx=0;entryDy=0;" edge="1" parent="1" source="eGvGXIPfCndCh9LHRhV2-7" target="eGvGXIPfCndCh9LHRhV2-9">
          <mxGeometry relative="1" as="geometry" />
        </mxCell>
        <mxCell id="eGvGXIPfCndCh9LHRhV2-7" value="Вычисление значений коэффициентов k и b с записью в соответствующие переменные" style="rounded=0;whiteSpace=wrap;html=1;" vertex="1" parent="1">
          <mxGeometry x="315" y="440" width="220" height="100" as="geometry" />
        </mxCell>
        <mxCell id="eGvGXIPfCndCh9LHRhV2-18" style="edgeStyle=orthogonalEdgeStyle;rounded=0;orthogonalLoop=1;jettySize=auto;html=1;exitX=0;exitY=0.5;exitDx=0;exitDy=0;entryX=0.5;entryY=0;entryDx=0;entryDy=0;" edge="1" parent="1" source="eGvGXIPfCndCh9LHRhV2-9" target="eGvGXIPfCndCh9LHRhV2-16">
          <mxGeometry relative="1" as="geometry" />
        </mxCell>
        <mxCell id="eGvGXIPfCndCh9LHRhV2-19" style="edgeStyle=orthogonalEdgeStyle;rounded=0;orthogonalLoop=1;jettySize=auto;html=1;exitX=1;exitY=0.5;exitDx=0;exitDy=0;entryX=0.617;entryY=-0.01;entryDx=0;entryDy=0;entryPerimeter=0;" edge="1" parent="1" source="eGvGXIPfCndCh9LHRhV2-9" target="eGvGXIPfCndCh9LHRhV2-17">
          <mxGeometry relative="1" as="geometry" />
        </mxCell>
        <mxCell id="eGvGXIPfCndCh9LHRhV2-9" value="b &amp;gt;= 0" style="rhombus;whiteSpace=wrap;html=1;" vertex="1" parent="1">
          <mxGeometry x="345" y="600" width="160" height="90" as="geometry" />
        </mxCell>
        <mxCell id="eGvGXIPfCndCh9LHRhV2-12" value="Да" style="text;html=1;align=center;verticalAlign=middle;resizable=0;points=[];autosize=1;strokeColor=none;fillColor=none;" vertex="1" parent="1">
          <mxGeometry x="300" y="610" width="30" height="20" as="geometry" />
        </mxCell>
        <mxCell id="eGvGXIPfCndCh9LHRhV2-13" value="Нет" style="text;html=1;align=center;verticalAlign=middle;resizable=0;points=[];autosize=1;strokeColor=none;fillColor=none;" vertex="1" parent="1">
          <mxGeometry x="494" y="610" width="40" height="20" as="geometry" />
        </mxCell>
        <mxCell id="eGvGXIPfCndCh9LHRhV2-21" style="edgeStyle=orthogonalEdgeStyle;rounded=0;orthogonalLoop=1;jettySize=auto;html=1;exitX=0.5;exitY=1;exitDx=0;exitDy=0;entryX=0;entryY=0.75;entryDx=0;entryDy=0;" edge="1" parent="1" source="eGvGXIPfCndCh9LHRhV2-16" target="eGvGXIPfCndCh9LHRhV2-2">
          <mxGeometry relative="1" as="geometry" />
        </mxCell>
        <mxCell id="eGvGXIPfCndCh9LHRhV2-16" value="вывод:&lt;br&gt;&quot;Уравнение функции вида:&lt;br&gt;y = kx + b" style="shape=parallelogram;perimeter=parallelogramPerimeter;whiteSpace=wrap;html=1;fixedSize=1;" vertex="1" parent="1">
          <mxGeometry x="90" y="690" width="180" height="100" as="geometry" />
        </mxCell>
        <mxCell id="eGvGXIPfCndCh9LHRhV2-20" style="edgeStyle=orthogonalEdgeStyle;rounded=0;orthogonalLoop=1;jettySize=auto;html=1;exitX=0.5;exitY=1;exitDx=0;exitDy=0;entryX=1;entryY=0.75;entryDx=0;entryDy=0;" edge="1" parent="1" source="eGvGXIPfCndCh9LHRhV2-17" target="eGvGXIPfCndCh9LHRhV2-2">
          <mxGeometry relative="1" as="geometry" />
        </mxCell>
        <mxCell id="eGvGXIPfCndCh9LHRhV2-17" value="&lt;span&gt;вывод:&lt;/span&gt;&lt;br&gt;&lt;span&gt;&quot;Уравнение функции вида:&lt;/span&gt;&lt;br&gt;&lt;span&gt;y = kx - b&lt;/span&gt;" style="shape=parallelogram;perimeter=parallelogramPerimeter;whiteSpace=wrap;html=1;fixedSize=1;" vertex="1" parent="1">
          <mxGeometry x="570" y="690" width="180" height="100" as="geometry" />
        </mxCell>
        <mxCell id="eGvGXIPfCndCh9LHRhV2-22" value="" style="strokeWidth=2;html=1;shape=mxgraph.flowchart.annotation_2;align=left;labelPosition=right;pointerEvents=1;rotation=-180;" vertex="1" parent="1">
          <mxGeometry x="190" y="440" width="60" height="100" as="geometry" />
        </mxCell>
        <mxCell id="eGvGXIPfCndCh9LHRhV2-27" value="" style="endArrow=none;dashed=1;html=1;rounded=0;entryX=0;entryY=0.5;entryDx=0;entryDy=0;exitX=0;exitY=0.5;exitDx=0;exitDy=0;exitPerimeter=0;" edge="1" parent="1" source="eGvGXIPfCndCh9LHRhV2-22" target="eGvGXIPfCndCh9LHRhV2-7">
          <mxGeometry width="50" height="50" relative="1" as="geometry">
            <mxPoint x="190" y="390" as="sourcePoint" />
            <mxPoint x="240" y="340" as="targetPoint" />
          </mxGeometry>
        </mxCell>
        <mxCell id="eGvGXIPfCndCh9LHRhV2-29" value="y_1 = x_1k + b&lt;br&gt;y_2 = x_2k + b&lt;br&gt;k = (-y_2 + y1)/(x_1 -x_2)&lt;br&gt;b = -kx_1 + y1" style="text;html=1;align=center;verticalAlign=middle;resizable=0;points=[];autosize=1;strokeColor=none;fillColor=none;" vertex="1" parent="1">
          <mxGeometry x="40" y="460" width="150" height="60" as="geometry" />
        </mxCell>
      </root>
    </mxGraphModel>
  </diagram>
</mxfile>
